<?xml version="1.0" encoding="utf-8"?>
<!-- Generator: Adobe Illustrator 21.1.0, SVG Export Plug-In . SVG Version: 6.00 Build 0)  -->
<svg version="1.1" id="Capa_1" xmlns="http://www.w3.org/2000/svg" xmlns:xlink="http://www.w3.org/1999/xlink" x="0px" y="0px"
	 viewBox="0 0 245.1 245.1" style="enable-background:new 0 0 245.1 245.1;" xml:space="preserve">
<style type="text/css">
	.st0{fill:#5b5fdf;}
	.st1{fill:#000;}
</style>
<path class="st0" d="M122.6,245.1c67.6,0,122.5-55,122.5-122.5C245.1,55,190.1,0,122.6,0C55,0,0,55,0,122.5
	C0,190.1,55,245.1,122.6,245.1z M51.9,171.4l-7-12l-19.4,11.2c-6.2-12.5-10.1-26.4-11-41h30.7v-13.9H14.6c0.9-14.7,4.8-28.5,11-41
	L45,85.8l6.9-12L32.6,62.5c7.9-11.7,17.9-21.9,29.7-29.8l11.4,19.5l12-7L74.2,25.8c12.6-6.3,26.6-10.2,41.4-11.2v31h13.9v-31
	c14.8,0.9,28.8,4.9,41.4,11.2l-11.4,19.5l12,7l11.4-19.5c11.7,7.9,21.8,18,29.7,29.8l-19.4,11.2l6.9,12l19.4-11.2
	c6.2,12.5,10.1,26.4,11,41h-30.7v13.9h30.7c-0.9,14.7-4.8,28.5-11,41l-19.4-11.2l-6.9,12l19.4,11.2c-7.9,11.7-17.9,21.9-29.7,29.8
	l-11.4-19.5l-12,7l11.4,19.5c-12.6,6.3-26.6,10.2-41.4,11.2v-31h-13.9v31c-14.8-0.9-28.8-4.9-41.4-11.2l11.3-19.5l-12-7l-11.4,19.5
	c-11.7-7.9-21.8-18-29.7-29.8L51.9,171.4z"/>
<path class="st1" d="M82.4,129.9c-8.3,6-13.6,11.6-15.9,16.9c-1.8,3.6-2.9,7.6-3.4,11.8c-0.3,2.2,1.5,3.9,3.7,3.9h46.9
	c2.2,0,3.9-1.8,3.9-3.9v-6c0-2.2-1.8-3.9-3.9-3.9h-27c-2.2,0-3.3-1.1-2.3-2.3c0.6-0.7,1.3-1.4,2-2c1.5-1.3,4.1-3.3,8.1-6.1l6.3-4.5
	c5.3-3.7,9.1-7.1,11.4-10.2c3.5-4.6,5.3-9.8,5.3-15.8c0-7.7-2.5-13.9-7.5-18.6c-5-4.7-11.7-7-20.2-7c-10.7,0-18.2,4-22.3,12
	c-1.8,3.3-2.9,7.5-3.4,12.6c-0.2,2.2,1.5,3.9,3.7,3.9h7.4c2.2,0,4-1.8,4.2-3.9c0.3-2.5,0.8-4.5,1.5-5.9c1.7-3.6,5-5.4,9.8-5.4
	c3.5,0,6.2,1.1,8,3.4c1.9,2.2,2.8,5.1,2.8,8.4c0,4.2-1.6,8-4.9,11.5C94.4,121,89.7,124.7,82.4,129.9z"/>
<path class="st1" d="M129,145.3h23.8c2.2,0,3.9,1.8,3.9,3.9v9.3c0,2.2,1.8,3.9,3.9,3.9h7.5c2.2,0,3.9-1.8,3.9-3.9v-9.3
	c0-2.2,1.8-3.9,3.9-3.9h1.2c2.2,0,3.9-1.8,3.9-3.9v-4.4c0-2.2-1.8-3.9-3.9-3.9h-1.2c-2.2,0-3.9-1.8-3.9-3.9V87
	c0-2.2-1.8-3.9-3.9-3.9h-9.8c-2.2,0-4.9,1.5-6,3.4l-25.3,41.8c-1.1,1.9-2,5.1-2,7.3v5.8C125.1,143.5,126.9,145.3,129,145.3z
	 M138.8,129.6l16-27.6c1.1-1.9,2-1.6,2,0.5v26.5c0,2.2-1.8,3.9-3.9,3.9h-12.1C138.6,133,137.7,131.5,138.8,129.6z"/>
</svg>
